<mxfile host="app.diagrams.net" modified="2022-08-23T10:06:15.412Z" agent="5.0 (Windows NT 10.0; Win64; x64) AppleWebKit/537.36 (KHTML, like Gecko) Chrome/104.0.5112.102 Safari/537.36" etag="pvJSOmOkFgt2Cp8hUPdY" version="20.2.6" type="github" pages="7">
  <diagram id="C5RBs43oDa-KdzZeNtuy" name="offpeak_gridPurchase">
    <mxGraphModel dx="1360" dy="806" grid="1" gridSize="10" guides="1" tooltips="1" connect="1" arrows="1" fold="1" page="1" pageScale="1" pageWidth="1169" pageHeight="827" math="1" shadow="0">
      <root>
        <mxCell id="WIyWlLk6GJQsqaUBKTNV-0" />
        <mxCell id="WIyWlLk6GJQsqaUBKTNV-1" parent="WIyWlLk6GJQsqaUBKTNV-0" />
        <mxCell id="WIyWlLk6GJQsqaUBKTNV-5" value="No" style="edgeStyle=orthogonalEdgeStyle;rounded=0;html=1;jettySize=auto;orthogonalLoop=1;fontSize=11;endArrow=block;endFill=0;endSize=8;strokeWidth=1;shadow=0;labelBackgroundColor=none;exitX=1;exitY=0.5;exitDx=0;exitDy=0;entryX=0.5;entryY=0;entryDx=0;entryDy=0;" parent="WIyWlLk6GJQsqaUBKTNV-1" source="WIyWlLk6GJQsqaUBKTNV-6" target="LK9ScgO5iGXmvuoJ-Ev6-28" edge="1">
          <mxGeometry x="0.1111" y="-10" relative="1" as="geometry">
            <mxPoint as="offset" />
            <mxPoint x="533.51" y="170" as="targetPoint" />
            <mxPoint x="510" y="169.84000000000003" as="sourcePoint" />
          </mxGeometry>
        </mxCell>
        <mxCell id="eRAbAJcWqP0rll2F5tbS-0" value="Yes" style="edgeStyle=orthogonalEdgeStyle;rounded=0;orthogonalLoop=1;jettySize=auto;html=1;exitX=0;exitY=0.5;exitDx=0;exitDy=0;" parent="WIyWlLk6GJQsqaUBKTNV-1" source="WIyWlLk6GJQsqaUBKTNV-6" target="LK9ScgO5iGXmvuoJ-Ev6-41" edge="1">
          <mxGeometry relative="1" as="geometry" />
        </mxCell>
        <mxCell id="WIyWlLk6GJQsqaUBKTNV-6" value="TOU = O&lt;br&gt;AND&lt;br&gt;Grid = On" style="rhombus;whiteSpace=wrap;html=1;shadow=0;fontFamily=Helvetica;fontSize=12;align=center;strokeWidth=1;spacing=6;spacingTop=-4;" parent="WIyWlLk6GJQsqaUBKTNV-1" vertex="1">
          <mxGeometry x="310" y="130" width="130" height="80" as="geometry" />
        </mxCell>
        <mxCell id="a5YteR3ad3Xy2xklBdV1-1" value="" style="edgeStyle=orthogonalEdgeStyle;rounded=0;orthogonalLoop=1;jettySize=auto;html=1;" parent="WIyWlLk6GJQsqaUBKTNV-1" source="LK9ScgO5iGXmvuoJ-Ev6-27" edge="1">
          <mxGeometry relative="1" as="geometry">
            <mxPoint x="375" y="130" as="targetPoint" />
          </mxGeometry>
        </mxCell>
        <mxCell id="LK9ScgO5iGXmvuoJ-Ev6-27" value="START" style="rounded=1;whiteSpace=wrap;html=1;" parent="WIyWlLk6GJQsqaUBKTNV-1" vertex="1">
          <mxGeometry x="340" y="60" width="70" height="20" as="geometry" />
        </mxCell>
        <mxCell id="LK9ScgO5iGXmvuoJ-Ev6-28" value="GP&amp;nbsp; = 0" style="rounded=1;whiteSpace=wrap;html=1;" parent="WIyWlLk6GJQsqaUBKTNV-1" vertex="1">
          <mxGeometry x="450" y="300" width="145" height="40" as="geometry" />
        </mxCell>
        <mxCell id="LK9ScgO5iGXmvuoJ-Ev6-41" value="&lt;blockquote style=&quot;margin: 0 0 0 40px; border: none; padding: 0px;&quot;&gt;GP = LAP + min (&lt;div style=&quot;&quot;&gt;&lt;span style=&quot;background-color: initial;&quot;&gt;&lt;span style=&quot;white-space: pre;&quot;&gt; &lt;/span&gt;max(&lt;/span&gt;&lt;/div&gt;&lt;div style=&quot;&quot;&gt;&lt;span style=&quot;background-color: initial;&quot;&gt;&lt;span style=&quot;white-space: pre;&quot;&gt; &lt;/span&gt;&lt;span style=&quot;white-space: pre;&quot;&gt; &lt;/span&gt;0, &lt;/span&gt;&lt;/div&gt;&lt;div style=&quot;&quot;&gt;&lt;span style=&quot;background-color: initial;&quot;&gt;&lt;span style=&quot;white-space: pre;&quot;&gt; &lt;/span&gt;&lt;span style=&quot;white-space: pre;&quot;&gt; &lt;/span&gt;(GCG-BE)/CEF&lt;/span&gt;&lt;/div&gt;&lt;div style=&quot;&quot;&gt;&lt;span style=&quot;background-color: initial;&quot;&gt;&lt;span style=&quot;white-space: pre;&quot;&gt; &lt;span style=&quot;white-space: pre;&quot;&gt; &lt;/span&gt;&lt;/span&gt;),&lt;/span&gt;&lt;/div&gt;&lt;div style=&quot;&quot;&gt;&lt;span style=&quot;background-color: initial;&quot;&gt;&lt;span style=&quot;white-space: pre;&quot;&gt; &lt;/span&gt;BCP,&lt;/span&gt;&lt;/div&gt;&lt;div style=&quot;&quot;&gt;&lt;span style=&quot;background-color: initial;&quot;&gt;&lt;span style=&quot;white-space: pre;&quot;&gt; &lt;/span&gt;GL - LAP&lt;/span&gt;&lt;/div&gt;&lt;div style=&quot;&quot;&gt;&lt;span style=&quot;background-color: initial;&quot;&gt;&lt;span style=&quot;white-space: pre;&quot;&gt; &lt;/span&gt;)&lt;/span&gt;&lt;/div&gt;&lt;/blockquote&gt;" style="rounded=1;whiteSpace=wrap;html=1;align=left;" parent="WIyWlLk6GJQsqaUBKTNV-1" vertex="1">
          <mxGeometry x="130" y="240" width="240" height="150" as="geometry" />
        </mxCell>
        <mxCell id="LK9ScgO5iGXmvuoJ-Ev6-44" value="&lt;h1&gt;Off-peak Grid purchase&lt;/h1&gt;&lt;p&gt;Grid input flow diagram&lt;/p&gt;" style="text;html=1;strokeColor=none;fillColor=none;spacing=5;spacingTop=-20;whiteSpace=wrap;overflow=hidden;rounded=0;" parent="WIyWlLk6GJQsqaUBKTNV-1" vertex="1">
          <mxGeometry x="20" y="10" width="290" height="120" as="geometry" />
        </mxCell>
        <mxCell id="DT33G6ivc94r_WNNMRTe-1" value="&lt;b&gt;&lt;u&gt;KEY&lt;/u&gt;&lt;/b&gt;&lt;br&gt;GP - grid purchase&lt;br&gt;BEC - battery energy capacity&lt;br&gt;TOU - time of use&lt;br&gt;GCG - grid charge goal&lt;br&gt;BE - battery energy&amp;nbsp;&lt;br&gt;BCP - battery charge power&lt;br&gt;LAG - load after grid&lt;br&gt;LAP - load after PV&lt;br&gt;CEF - Charging efficient (&lt;span style=&quot;&quot;&gt;SQRT(RTE))&lt;/span&gt;" style="text;html=1;align=left;verticalAlign=middle;resizable=0;points=[];autosize=1;strokeColor=none;fillColor=none;" parent="WIyWlLk6GJQsqaUBKTNV-1" vertex="1">
          <mxGeometry x="680" width="230" height="160" as="geometry" />
        </mxCell>
        <mxCell id="Il3I6ZQCY1g0ZTRnsa9A-0" value="\(\eta_{discharge} = \eta_{charge} = \sqrt{\eta_{rt}}\)" style="text;html=1;align=left;verticalAlign=middle;resizable=0;points=[];autosize=1;strokeColor=none;fillColor=none;fontSize=19;" parent="WIyWlLk6GJQsqaUBKTNV-1" vertex="1">
          <mxGeometry x="680" y="200" width="460" height="40" as="geometry" />
        </mxCell>
      </root>
    </mxGraphModel>
  </diagram>
  <diagram name="s&amp;p_gridPurchase" id="lu-7U6GpQGHhP1ZGBrCz">
    <mxGraphModel dx="1360" dy="806" grid="1" gridSize="10" guides="1" tooltips="1" connect="1" arrows="1" fold="1" page="1" pageScale="1" pageWidth="1169" pageHeight="827" math="0" shadow="0">
      <root>
        <mxCell id="x3wX9vYNmzgQJr7Gk1Wa-0" />
        <mxCell id="x3wX9vYNmzgQJr7Gk1Wa-1" parent="x3wX9vYNmzgQJr7Gk1Wa-0" />
        <mxCell id="x3wX9vYNmzgQJr7Gk1Wa-3" value="No" style="edgeStyle=orthogonalEdgeStyle;rounded=0;html=1;jettySize=auto;orthogonalLoop=1;fontSize=11;endArrow=block;endFill=0;endSize=8;strokeWidth=1;shadow=0;labelBackgroundColor=none;exitX=1;exitY=0.5;exitDx=0;exitDy=0;entryX=0.5;entryY=0;entryDx=0;entryDy=0;" parent="x3wX9vYNmzgQJr7Gk1Wa-1" source="x3wX9vYNmzgQJr7Gk1Wa-4" target="x3wX9vYNmzgQJr7Gk1Wa-9" edge="1">
          <mxGeometry x="0.1111" y="-10" relative="1" as="geometry">
            <mxPoint as="offset" />
            <mxPoint x="520" y="250" as="targetPoint" />
            <mxPoint x="510" y="249.84000000000003" as="sourcePoint" />
          </mxGeometry>
        </mxCell>
        <mxCell id="8cSevvx9AT7PZPWBl2H_-0" value="Yes" style="edgeStyle=orthogonalEdgeStyle;rounded=0;orthogonalLoop=1;jettySize=auto;html=1;entryX=0.5;entryY=0;entryDx=0;entryDy=0;exitX=0;exitY=0.5;exitDx=0;exitDy=0;" edge="1" parent="x3wX9vYNmzgQJr7Gk1Wa-1" source="x3wX9vYNmzgQJr7Gk1Wa-4" target="x3wX9vYNmzgQJr7Gk1Wa-12">
          <mxGeometry relative="1" as="geometry">
            <mxPoint x="245" y="260" as="targetPoint" />
          </mxGeometry>
        </mxCell>
        <mxCell id="x3wX9vYNmzgQJr7Gk1Wa-4" value="(TOU = &quot;S&quot; OR TOU = &quot;P&quot;)&lt;br&gt;AND&lt;br&gt;Grid = On" style="rhombus;whiteSpace=wrap;html=1;shadow=0;fontFamily=Helvetica;fontSize=12;align=center;strokeWidth=1;spacing=6;spacingTop=-4;" parent="x3wX9vYNmzgQJr7Gk1Wa-1" vertex="1">
          <mxGeometry x="300" y="140" width="220" height="130" as="geometry" />
        </mxCell>
        <mxCell id="x3wX9vYNmzgQJr7Gk1Wa-7" value="" style="edgeStyle=orthogonalEdgeStyle;rounded=0;orthogonalLoop=1;jettySize=auto;html=1;entryX=0.5;entryY=0;entryDx=0;entryDy=0;" parent="x3wX9vYNmzgQJr7Gk1Wa-1" source="x3wX9vYNmzgQJr7Gk1Wa-8" edge="1" target="x3wX9vYNmzgQJr7Gk1Wa-4">
          <mxGeometry relative="1" as="geometry">
            <mxPoint x="375" y="130" as="targetPoint" />
          </mxGeometry>
        </mxCell>
        <mxCell id="x3wX9vYNmzgQJr7Gk1Wa-8" value="START" style="rounded=1;whiteSpace=wrap;html=1;" parent="x3wX9vYNmzgQJr7Gk1Wa-1" vertex="1">
          <mxGeometry x="375" y="70" width="70" height="20" as="geometry" />
        </mxCell>
        <mxCell id="x3wX9vYNmzgQJr7Gk1Wa-9" value="GP&amp;nbsp; = 0" style="rounded=1;whiteSpace=wrap;html=1;" parent="x3wX9vYNmzgQJr7Gk1Wa-1" vertex="1">
          <mxGeometry x="520" y="270" width="85" height="40" as="geometry" />
        </mxCell>
        <mxCell id="x3wX9vYNmzgQJr7Gk1Wa-12" value="GP = min (LAB, GL)" style="rounded=1;whiteSpace=wrap;html=1;" parent="x3wX9vYNmzgQJr7Gk1Wa-1" vertex="1">
          <mxGeometry x="150" y="280" width="190" height="30" as="geometry" />
        </mxCell>
        <mxCell id="x3wX9vYNmzgQJr7Gk1Wa-13" value="&lt;h1&gt;Standard and peak grid purchase&lt;/h1&gt;&lt;p&gt;Grid input flow diagram&lt;/p&gt;" style="text;html=1;strokeColor=none;fillColor=none;spacing=5;spacingTop=-20;whiteSpace=wrap;overflow=hidden;rounded=0;" parent="x3wX9vYNmzgQJr7Gk1Wa-1" vertex="1">
          <mxGeometry x="20" y="10" width="300" height="120" as="geometry" />
        </mxCell>
        <mxCell id="x3wX9vYNmzgQJr7Gk1Wa-14" value="&lt;b&gt;&lt;u&gt;KEY&lt;/u&gt;&lt;/b&gt;&lt;br&gt;GP - grid purchase&lt;br&gt;BEC - battery energy capacity&lt;br&gt;TOU - time of use&lt;br&gt;GCG - grid charge goal&lt;br&gt;BE - battery energy&amp;nbsp;&lt;br&gt;BCP - battery charge power&lt;br&gt;LAG - load after grid&lt;br&gt;LAP - load after PV&lt;br&gt;LAB - Load after BESS&lt;br&gt;GL - Grid limit" style="text;html=1;align=left;verticalAlign=middle;resizable=0;points=[];autosize=1;strokeColor=none;fillColor=none;" parent="x3wX9vYNmzgQJr7Gk1Wa-1" vertex="1">
          <mxGeometry x="690" y="40" width="180" height="170" as="geometry" />
        </mxCell>
      </root>
    </mxGraphModel>
  </diagram>
  <diagram name="bessCharge" id="-_yp-hsYx3pz8FFsyMSn">
    <mxGraphModel dx="1360" dy="806" grid="1" gridSize="10" guides="1" tooltips="1" connect="1" arrows="1" fold="1" page="1" pageScale="1" pageWidth="1169" pageHeight="827" background="none" math="1" shadow="0">
      <root>
        <mxCell id="6cl_TD3AmLUB1-cgZ15C-0" />
        <mxCell id="6cl_TD3AmLUB1-cgZ15C-1" parent="6cl_TD3AmLUB1-cgZ15C-0" />
        <mxCell id="g0z7IhD7ouymIrGThYdU-17" value="" style="rounded=1;whiteSpace=wrap;html=1;dashed=1;fillColor=none;arcSize=31;strokeColor=#d6b656;strokeWidth=3;" parent="6cl_TD3AmLUB1-cgZ15C-1" vertex="1">
          <mxGeometry x="640" y="210" width="277.5" height="170" as="geometry" />
        </mxCell>
        <mxCell id="g0z7IhD7ouymIrGThYdU-6" value="" style="rounded=1;whiteSpace=wrap;html=1;dashed=1;fillColor=none;arcSize=31;strokeColor=#6c8ebf;strokeWidth=3;" parent="6cl_TD3AmLUB1-cgZ15C-1" vertex="1">
          <mxGeometry x="30" y="460" width="350" height="140" as="geometry" />
        </mxCell>
        <mxCell id="g0z7IhD7ouymIrGThYdU-1" value="" style="rounded=1;whiteSpace=wrap;html=1;dashed=1;fillColor=none;arcSize=31;strokeColor=#82b366;strokeWidth=3;" parent="6cl_TD3AmLUB1-cgZ15C-1" vertex="1">
          <mxGeometry x="433.74" y="500" width="380" height="200" as="geometry" />
        </mxCell>
        <mxCell id="6cl_TD3AmLUB1-cgZ15C-4" value="No" style="edgeStyle=orthogonalEdgeStyle;rounded=0;html=1;jettySize=auto;orthogonalLoop=1;fontSize=11;endArrow=block;endFill=0;endSize=8;strokeWidth=1;shadow=0;labelBackgroundColor=none;exitX=1;exitY=0.5;exitDx=0;exitDy=0;verticalAlign=middle;" parent="6cl_TD3AmLUB1-cgZ15C-1" source="6cl_TD3AmLUB1-cgZ15C-5" target="g0z7IhD7ouymIrGThYdU-8" edge="1">
          <mxGeometry x="0.5152" y="-17" relative="1" as="geometry">
            <mxPoint as="offset" />
            <mxPoint x="587.5" y="390" as="targetPoint" />
            <mxPoint x="602.5" y="239.84000000000003" as="sourcePoint" />
          </mxGeometry>
        </mxCell>
        <mxCell id="g0z7IhD7ouymIrGThYdU-14" value="Yes" style="edgeStyle=orthogonalEdgeStyle;rounded=0;orthogonalLoop=1;jettySize=auto;html=1;exitX=0;exitY=0.5;exitDx=0;exitDy=0;" parent="6cl_TD3AmLUB1-cgZ15C-1" source="6cl_TD3AmLUB1-cgZ15C-5" target="qtNIPX7f-IYSsjuETtx7-0" edge="1">
          <mxGeometry relative="1" as="geometry" />
        </mxCell>
        <mxCell id="6cl_TD3AmLUB1-cgZ15C-5" value="Genset = &quot;On&quot;&lt;br&gt;AND&lt;br&gt;(SOC &amp;lt; SOC&lt;sub&gt;&lt;font style=&quot;font-size: 12px;&quot;&gt;min&lt;br&gt;OR&lt;br&gt;SOC = 0)&lt;/font&gt;&lt;/sub&gt;" style="rhombus;whiteSpace=wrap;html=1;shadow=0;fontFamily=Helvetica;fontSize=12;align=center;strokeWidth=1;spacing=6;spacingTop=-4;verticalAlign=middle;rounded=0;" parent="6cl_TD3AmLUB1-cgZ15C-1" vertex="1">
          <mxGeometry x="300" y="240" width="232.5" height="140" as="geometry" />
        </mxCell>
        <mxCell id="FhyjPaBEsX8r4Yeg3IF2-32" style="edgeStyle=orthogonalEdgeStyle;rounded=0;orthogonalLoop=1;jettySize=auto;html=1;entryX=0.5;entryY=0;entryDx=0;entryDy=0;endArrow=block;endFill=0;startSize=6;endSize=8;" parent="6cl_TD3AmLUB1-cgZ15C-1" source="6cl_TD3AmLUB1-cgZ15C-8" target="FhyjPaBEsX8r4Yeg3IF2-31" edge="1">
          <mxGeometry relative="1" as="geometry" />
        </mxCell>
        <mxCell id="6cl_TD3AmLUB1-cgZ15C-8" value="START" style="rounded=0;whiteSpace=wrap;html=1;verticalAlign=middle;" parent="6cl_TD3AmLUB1-cgZ15C-1" vertex="1">
          <mxGeometry x="532.51" y="10" width="70" height="20" as="geometry" />
        </mxCell>
        <mxCell id="6cl_TD3AmLUB1-cgZ15C-13" value="&lt;h1&gt;&lt;span style=&quot;background-color: initial;&quot;&gt;Battery charge&amp;nbsp;&lt;/span&gt;&lt;/h1&gt;&lt;h1&gt;&lt;span style=&quot;background-color: initial; font-size: 12px; font-weight: normal;&quot;&gt;Flow diagram for battery charge&lt;/span&gt;&lt;br&gt;&lt;/h1&gt;" style="text;html=1;strokeColor=none;fillColor=none;spacing=5;spacingTop=-20;whiteSpace=wrap;overflow=hidden;rounded=0;" parent="6cl_TD3AmLUB1-cgZ15C-1" vertex="1">
          <mxGeometry x="20" y="10" width="230" height="80" as="geometry" />
        </mxCell>
        <mxCell id="6cl_TD3AmLUB1-cgZ15C-14" value="&lt;b&gt;&lt;u&gt;KEY&lt;/u&gt;&lt;/b&gt;&lt;br&gt;GP - grid purchase&lt;br&gt;BEC - battery energy capacity&lt;br&gt;TOU - time of use&lt;br&gt;GCG - grid charge goal&lt;br&gt;BEL - battery energy level&amp;nbsp;&lt;br&gt;BCP - battery charge power&lt;br&gt;LAG - load after grid&lt;br&gt;LAP - load after PVE&lt;br&gt;BC = Battery charge&lt;br&gt;GC - Genset capacity&lt;br&gt;PV - PV input&lt;br&gt;EPV - excess pv&lt;br&gt;SOC - BESS state of charge&amp;nbsp;&lt;br&gt;GL - Grid limit&lt;br&gt;CEF - Charging efficiency&lt;br&gt;DEF - discharging efficiency&lt;br&gt;LBG - Load before gen" style="text;html=1;align=left;verticalAlign=middle;resizable=0;points=[];autosize=1;strokeColor=none;fillColor=none;rounded=0;" parent="6cl_TD3AmLUB1-cgZ15C-1" vertex="1">
          <mxGeometry x="970" y="30" width="180" height="270" as="geometry" />
        </mxCell>
        <mxCell id="FhyjPaBEsX8r4Yeg3IF2-35" value="No" style="edgeStyle=orthogonalEdgeStyle;rounded=0;orthogonalLoop=1;jettySize=auto;html=1;endArrow=block;endFill=0;startSize=6;endSize=8;exitX=0;exitY=0.5;exitDx=0;exitDy=0;" parent="6cl_TD3AmLUB1-cgZ15C-1" source="FhyjPaBEsX8r4Yeg3IF2-31" target="6cl_TD3AmLUB1-cgZ15C-5" edge="1">
          <mxGeometry x="0.347" relative="1" as="geometry">
            <mxPoint as="offset" />
          </mxGeometry>
        </mxCell>
        <mxCell id="FhyjPaBEsX8r4Yeg3IF2-37" value="Yes" style="edgeStyle=orthogonalEdgeStyle;rounded=0;orthogonalLoop=1;jettySize=auto;html=1;endArrow=block;endFill=0;startSize=6;endSize=8;entryX=0.5;entryY=0;entryDx=0;entryDy=0;exitX=1;exitY=0.5;exitDx=0;exitDy=0;" parent="6cl_TD3AmLUB1-cgZ15C-1" source="FhyjPaBEsX8r4Yeg3IF2-31" target="g0z7IhD7ouymIrGThYdU-17" edge="1">
          <mxGeometry relative="1" as="geometry">
            <mxPoint x="720" y="130" as="targetPoint" />
          </mxGeometry>
        </mxCell>
        <mxCell id="FhyjPaBEsX8r4Yeg3IF2-31" value="TOU = &quot;O&quot; &lt;br&gt;AND &lt;br&gt;BEL &amp;lt; GCG&lt;br&gt;AND&lt;br&gt;Grid = On&lt;br&gt;AND&lt;br&gt;&lt;font color=&quot;#ff6666&quot;&gt;soc &amp;gt; trigger&lt;/font&gt;" style="rhombus;whiteSpace=wrap;html=1;shadow=0;fontFamily=Helvetica;fontSize=12;align=center;strokeWidth=1;spacing=6;spacingTop=-4;verticalAlign=middle;rounded=0;" parent="6cl_TD3AmLUB1-cgZ15C-1" vertex="1">
          <mxGeometry x="474.37" y="60" width="195.63" height="170" as="geometry" />
        </mxCell>
        <mxCell id="B69l18TPprIttJ-5V3IQ-0" value="BC = max(&lt;br&gt;&lt;span style=&quot;white-space: pre;&quot;&gt; &lt;/span&gt;0, &lt;br&gt;&lt;div style=&quot;&quot;&gt;&lt;span style=&quot;background-color: initial;&quot;&gt;&lt;span style=&quot;white-space: pre;&quot;&gt; &lt;/span&gt;min(BCP, EPV),&lt;/span&gt;&lt;/div&gt;&lt;span style=&quot;white-space: pre;&quot;&gt; &lt;/span&gt;min(BCP, (GCG - BEL)/CEF, GL - LAP)&lt;br&gt;)" style="rounded=1;whiteSpace=wrap;html=1;shadow=0;strokeWidth=1;spacing=6;spacingTop=-4;fillColor=#f8cecc;strokeColor=#b85450;glass=0;align=left;" parent="6cl_TD3AmLUB1-cgZ15C-1" vertex="1">
          <mxGeometry x="672.5" y="230" width="227.5" height="100" as="geometry" />
        </mxCell>
        <mxCell id="qtNIPX7f-IYSsjuETtx7-0" value="BC = max(&lt;br&gt;0,&lt;br&gt;min(GC - LBG, BCP)&lt;br&gt;&lt;div style=&quot;&quot;&gt;&lt;span style=&quot;background-color: initial;&quot;&gt;)&lt;/span&gt;&lt;/div&gt;" style="rounded=1;whiteSpace=wrap;html=1;verticalAlign=middle;fillColor=#d5e8d4;strokeColor=#82b366;glass=0;align=left;" parent="6cl_TD3AmLUB1-cgZ15C-1" vertex="1">
          <mxGeometry x="180" y="480" width="190" height="80" as="geometry" />
        </mxCell>
        <mxCell id="g0z7IhD7ouymIrGThYdU-4" value="PV Charge" style="text;html=1;strokeColor=#82b366;fillColor=#d5e8d4;align=center;verticalAlign=middle;whiteSpace=wrap;rounded=1;arcSize=50;" parent="6cl_TD3AmLUB1-cgZ15C-1" vertex="1">
          <mxGeometry x="702.5" y="650" width="92.51" height="30" as="geometry" />
        </mxCell>
        <mxCell id="g0z7IhD7ouymIrGThYdU-7" value="Genset charge" style="text;html=1;strokeColor=#6c8ebf;fillColor=#dae8fc;align=center;verticalAlign=middle;whiteSpace=wrap;rounded=1;arcSize=50;" parent="6cl_TD3AmLUB1-cgZ15C-1" vertex="1">
          <mxGeometry x="52.5" y="557" width="110" height="30" as="geometry" />
        </mxCell>
        <mxCell id="g0z7IhD7ouymIrGThYdU-8" value="BC = min(&lt;br&gt;BCP, &lt;br&gt;(BEC - BEL)/CEF, &lt;br&gt;EPV&lt;br&gt;)" style="rounded=1;whiteSpace=wrap;html=1;shadow=0;strokeWidth=1;spacing=6;spacingTop=-4;fillColor=#e1d5e7;strokeColor=#9673a6;align=left;" parent="6cl_TD3AmLUB1-cgZ15C-1" vertex="1">
          <mxGeometry x="479.38" y="557" width="212.52" height="83" as="geometry" />
        </mxCell>
        <mxCell id="g0z7IhD7ouymIrGThYdU-18" value="Grid charge" style="text;html=1;strokeColor=#d6b656;fillColor=#fff2cc;align=center;verticalAlign=middle;whiteSpace=wrap;rounded=1;arcSize=50;" parent="6cl_TD3AmLUB1-cgZ15C-1" vertex="1">
          <mxGeometry x="772.5" y="340" width="120" height="30" as="geometry" />
        </mxCell>
        <mxCell id="hqxDWIA4O4p0LkHxTcnM-0" value="\(\eta_{discharge} = \eta_{charge} = \sqrt{\eta_{rt}}\)" style="text;html=1;align=left;verticalAlign=middle;resizable=0;points=[];autosize=1;strokeColor=none;fillColor=none;fontSize=19;" parent="6cl_TD3AmLUB1-cgZ15C-1" vertex="1">
          <mxGeometry x="20" y="700" width="460" height="40" as="geometry" />
        </mxCell>
        <mxCell id="hqxDWIA4O4p0LkHxTcnM-1" value="$$ BEL_{i+1} = BEL_i + charge \cdot \sqrt{\eta_{rt}} - \frac{discharge}{\sqrt{\eta_{rt}}} $$" style="text;html=1;align=left;verticalAlign=middle;resizable=0;points=[];autosize=1;strokeColor=none;fillColor=none;fontSize=14;" parent="6cl_TD3AmLUB1-cgZ15C-1" vertex="1">
          <mxGeometry x="20" y="756" width="570" height="30" as="geometry" />
        </mxCell>
      </root>
    </mxGraphModel>
  </diagram>
  <diagram name="bessDischarge" id="q7cStsHBVhpRV0pZvIqo">
    <mxGraphModel dx="1360" dy="806" grid="1" gridSize="10" guides="1" tooltips="1" connect="1" arrows="1" fold="1" page="1" pageScale="1" pageWidth="1169" pageHeight="827" background="none" math="1" shadow="0">
      <root>
        <mxCell id="csG7UgbEqWCRexEKj5_T-0" />
        <mxCell id="csG7UgbEqWCRexEKj5_T-1" parent="csG7UgbEqWCRexEKj5_T-0" />
        <mxCell id="27d9CEADMNGU8r7h79jH-2" value="" style="rounded=1;whiteSpace=wrap;html=1;fontSize=14;fillColor=none;dashed=1;strokeWidth=3;" parent="csG7UgbEqWCRexEKj5_T-1" vertex="1">
          <mxGeometry x="50" y="300" width="460" height="260" as="geometry" />
        </mxCell>
        <mxCell id="zqP5TKmobI9pTjwGdJMn-0" style="edgeStyle=orthogonalEdgeStyle;rounded=0;orthogonalLoop=1;jettySize=auto;html=1;exitX=0;exitY=0.5;exitDx=0;exitDy=0;entryX=0.5;entryY=0;entryDx=0;entryDy=0;" parent="csG7UgbEqWCRexEKj5_T-1" source="csG7UgbEqWCRexEKj5_T-4" target="csG7UgbEqWCRexEKj5_T-8" edge="1">
          <mxGeometry relative="1" as="geometry" />
        </mxCell>
        <mxCell id="zqP5TKmobI9pTjwGdJMn-1" value="Yes" style="edgeLabel;html=1;align=center;verticalAlign=middle;resizable=0;points=[];" parent="zqP5TKmobI9pTjwGdJMn-0" vertex="1" connectable="0">
          <mxGeometry x="-0.1037" relative="1" as="geometry">
            <mxPoint x="1" as="offset" />
          </mxGeometry>
        </mxCell>
        <mxCell id="N84pFdixtCfQV_1btkXN-3" value="No" style="edgeStyle=orthogonalEdgeStyle;rounded=0;orthogonalLoop=1;jettySize=auto;html=1;entryX=0.5;entryY=0;entryDx=0;entryDy=0;exitX=1;exitY=0.5;exitDx=0;exitDy=0;" parent="csG7UgbEqWCRexEKj5_T-1" source="csG7UgbEqWCRexEKj5_T-4" edge="1">
          <mxGeometry x="0.2195" relative="1" as="geometry">
            <mxPoint x="665" y="340" as="targetPoint" />
            <mxPoint y="1" as="offset" />
          </mxGeometry>
        </mxCell>
        <mxCell id="csG7UgbEqWCRexEKj5_T-4" value="Genset = &quot;On&quot;" style="rhombus;whiteSpace=wrap;html=1;shadow=0;fontFamily=Helvetica;fontSize=12;align=center;strokeWidth=1;spacing=6;spacingTop=-4;verticalAlign=middle;rounded=0;" parent="csG7UgbEqWCRexEKj5_T-1" vertex="1">
          <mxGeometry x="502.5" y="230" width="130" height="80" as="geometry" />
        </mxCell>
        <mxCell id="N84pFdixtCfQV_1btkXN-0" value="No" style="edgeStyle=orthogonalEdgeStyle;rounded=0;orthogonalLoop=1;jettySize=auto;html=1;" parent="csG7UgbEqWCRexEKj5_T-1" source="csG7UgbEqWCRexEKj5_T-8" target="csG7UgbEqWCRexEKj5_T-23" edge="1">
          <mxGeometry relative="1" as="geometry" />
        </mxCell>
        <mxCell id="csG7UgbEqWCRexEKj5_T-8" value="&lt;font style=&quot;font-size: 12px;&quot;&gt;SOC &amp;gt; SOC&lt;/font&gt;&lt;sub style=&quot;&quot;&gt;&lt;font style=&quot;font-size: 12px;&quot;&gt;min&lt;/font&gt;&lt;br&gt;&lt;/sub&gt;" style="rhombus;whiteSpace=wrap;html=1;verticalAlign=middle;rounded=0;" parent="csG7UgbEqWCRexEKj5_T-1" vertex="1">
          <mxGeometry x="332.5" y="320" width="170" height="70" as="geometry" />
        </mxCell>
        <mxCell id="csG7UgbEqWCRexEKj5_T-9" style="edgeStyle=orthogonalEdgeStyle;rounded=0;orthogonalLoop=1;jettySize=auto;html=1;entryX=0.5;entryY=0;entryDx=0;entryDy=0;endArrow=block;endFill=0;startSize=6;endSize=8;" parent="csG7UgbEqWCRexEKj5_T-1" source="csG7UgbEqWCRexEKj5_T-10" target="csG7UgbEqWCRexEKj5_T-4" edge="1">
          <mxGeometry relative="1" as="geometry">
            <mxPoint x="567.5050000000001" y="210" as="targetPoint" />
          </mxGeometry>
        </mxCell>
        <mxCell id="csG7UgbEqWCRexEKj5_T-10" value="START" style="rounded=0;whiteSpace=wrap;html=1;verticalAlign=middle;" parent="csG7UgbEqWCRexEKj5_T-1" vertex="1">
          <mxGeometry x="532.51" y="160" width="70" height="20" as="geometry" />
        </mxCell>
        <mxCell id="csG7UgbEqWCRexEKj5_T-11" value="BD = min(LAG, BDP, BEL*\(\eta_{discharge}\))" style="rounded=1;whiteSpace=wrap;html=1;verticalAlign=middle;fillColor=#d5e8d4;strokeColor=#82b366;fontSize=14;" parent="csG7UgbEqWCRexEKj5_T-1" vertex="1">
          <mxGeometry x="70" y="410" width="290" height="30" as="geometry" />
        </mxCell>
        <mxCell id="csG7UgbEqWCRexEKj5_T-12" value="&lt;h1&gt;&lt;span style=&quot;background-color: initial;&quot;&gt;Battery discharge&amp;nbsp;&lt;/span&gt;&lt;/h1&gt;&lt;h1&gt;&lt;span style=&quot;background-color: initial; font-size: 12px; font-weight: normal;&quot;&gt;Flow diagram for battery discharge&lt;/span&gt;&lt;br&gt;&lt;/h1&gt;" style="text;html=1;strokeColor=none;fillColor=none;spacing=5;spacingTop=-20;whiteSpace=wrap;overflow=hidden;rounded=0;" parent="csG7UgbEqWCRexEKj5_T-1" vertex="1">
          <mxGeometry x="20" y="10" width="230" height="80" as="geometry" />
        </mxCell>
        <mxCell id="csG7UgbEqWCRexEKj5_T-13" value="&lt;b&gt;&lt;u&gt;KEY&lt;/u&gt;&lt;/b&gt;&lt;br&gt;GP - grid purchase&lt;br&gt;BEC - battery energy capacity&lt;br&gt;TOU - time of use&lt;br&gt;GCG - grid charge goal&lt;br&gt;BEL - battery energy level&amp;nbsp;&lt;br&gt;BCP - battery charge power&lt;br&gt;LAG - load after grid&lt;br&gt;LAP - load after PVE&lt;br&gt;BC - Battery charge&lt;br&gt;BDP - BESS discharge power&amp;nbsp;&lt;br&gt;PV - PV input&lt;br&gt;EPV - excess pv&lt;br&gt;BD - BESS discharge" style="text;html=1;align=left;verticalAlign=middle;resizable=0;points=[];autosize=1;strokeColor=none;fillColor=none;rounded=0;" parent="csG7UgbEqWCRexEKj5_T-1" vertex="1">
          <mxGeometry x="990" y="10" width="160" height="200" as="geometry" />
        </mxCell>
        <mxCell id="csG7UgbEqWCRexEKj5_T-17" value="Yes" style="edgeStyle=orthogonalEdgeStyle;rounded=0;orthogonalLoop=1;jettySize=auto;html=1;endArrow=block;endFill=0;startSize=6;endSize=8;" parent="csG7UgbEqWCRexEKj5_T-1" edge="1">
          <mxGeometry relative="1" as="geometry">
            <mxPoint x="567.5" y="370" as="sourcePoint" />
          </mxGeometry>
        </mxCell>
        <mxCell id="csG7UgbEqWCRexEKj5_T-21" value="Yes" style="edgeStyle=orthogonalEdgeStyle;rounded=0;orthogonalLoop=1;jettySize=auto;html=1;endArrow=block;endFill=0;startSize=6;endSize=8;entryX=0.5;entryY=0;entryDx=0;entryDy=0;verticalAlign=middle;" parent="csG7UgbEqWCRexEKj5_T-1" edge="1">
          <mxGeometry x="0.6" y="25" relative="1" as="geometry">
            <mxPoint x="365" y="530" as="targetPoint" />
            <mxPoint as="offset" />
          </mxGeometry>
        </mxCell>
        <mxCell id="csG7UgbEqWCRexEKj5_T-23" value="BD = 0" style="rounded=1;whiteSpace=wrap;html=1;shadow=0;strokeWidth=1;spacing=6;spacingTop=-4;verticalAlign=middle;fillColor=#fad7ac;strokeColor=#b46504;" parent="csG7UgbEqWCRexEKj5_T-1" vertex="1">
          <mxGeometry x="372.5" y="440" width="90" height="40" as="geometry" />
        </mxCell>
        <mxCell id="RdQRuAQitY5cpcWzpHFS-0" value="Yes" style="edgeStyle=orthogonalEdgeStyle;rounded=0;orthogonalLoop=1;jettySize=auto;html=1;exitX=0;exitY=0.5;exitDx=0;exitDy=0;entryX=0.5;entryY=0;entryDx=0;entryDy=0;" parent="csG7UgbEqWCRexEKj5_T-1" source="csG7UgbEqWCRexEKj5_T-8" target="csG7UgbEqWCRexEKj5_T-11" edge="1">
          <mxGeometry relative="1" as="geometry" />
        </mxCell>
        <mxCell id="27d9CEADMNGU8r7h79jH-0" value="BD = min(LAG, BDP, BEL*\(\eta_{discharge}\))" style="rounded=1;whiteSpace=wrap;html=1;verticalAlign=middle;fillColor=#d5e8d4;strokeColor=#82b366;fontSize=14;" parent="csG7UgbEqWCRexEKj5_T-1" vertex="1">
          <mxGeometry x="530" y="340" width="290" height="30" as="geometry" />
        </mxCell>
        <mxCell id="27d9CEADMNGU8r7h79jH-1" value="\(\eta_{discharge} = \eta_{charge} = \sqrt{\eta_{rt}}\)" style="text;html=1;align=center;verticalAlign=middle;resizable=0;points=[];autosize=1;strokeColor=none;fillColor=none;fontSize=19;" parent="csG7UgbEqWCRexEKj5_T-1" vertex="1">
          <mxGeometry x="585" y="460" width="460" height="40" as="geometry" />
        </mxCell>
        <mxCell id="27d9CEADMNGU8r7h79jH-3" value="Genset is available. If charge state is healthy, battery will discharge." style="text;html=1;align=center;verticalAlign=middle;resizable=0;points=[];autosize=1;strokeColor=none;fillColor=none;fontSize=14;" parent="csG7UgbEqWCRexEKj5_T-1" vertex="1">
          <mxGeometry x="60" y="520" width="440" height="30" as="geometry" />
        </mxCell>
        <mxCell id="G9tuIaZHgIYdK8gMg8mX-1" value="MIN(cap+charge-discharge,bessSize))" style="text;whiteSpace=wrap;html=1;fontSize=14;" parent="csG7UgbEqWCRexEKj5_T-1" vertex="1">
          <mxGeometry x="800" y="630" width="270" height="40" as="geometry" />
        </mxCell>
        <mxCell id="G9tuIaZHgIYdK8gMg8mX-2" value="&lt;pre style=&quot;margin-top: 0px; margin-bottom: calc(var(--s-prose-spacing) + 0.4em); padding: var(--su12); border: 0px; font-variant-numeric: inherit; font-variant-east-asian: inherit; font-stretch: inherit; line-height: var(--lh-md); font-family: var(--ff-mono); vertical-align: baseline; box-sizing: inherit; width: auto; max-height: 600px; overflow: auto; background-color: var(--highlight-bg); border-radius: var(--br-md); color: var(--highlight-color); overflow-wrap: normal; text-align: left;&quot; class=&quot;lang-tex s-code-block&quot;&gt;&lt;br&gt;&lt;/pre&gt;" style="text;html=1;align=center;verticalAlign=middle;resizable=0;points=[];autosize=1;strokeColor=none;fillColor=none;fontSize=14;" parent="csG7UgbEqWCRexEKj5_T-1" vertex="1">
          <mxGeometry x="430" y="665" width="20" height="30" as="geometry" />
        </mxCell>
        <mxCell id="G9tuIaZHgIYdK8gMg8mX-5" value="$$ BEL_{i+1} = BEL_i + charge \cdot \sqrt{\eta_{rt}} - \frac{discharge}{\sqrt{\eta_{rt}}} $$" style="text;html=1;align=center;verticalAlign=middle;resizable=0;points=[];autosize=1;strokeColor=none;fillColor=none;fontSize=14;" parent="csG7UgbEqWCRexEKj5_T-1" vertex="1">
          <mxGeometry x="570" y="510" width="570" height="30" as="geometry" />
        </mxCell>
      </root>
    </mxGraphModel>
  </diagram>
  <diagram name="Genset input" id="ADu4YIq96FO81b4vE5pM">
    <mxGraphModel dx="1360" dy="806" grid="1" gridSize="10" guides="1" tooltips="1" connect="1" arrows="1" fold="1" page="1" pageScale="1" pageWidth="1169" pageHeight="827" background="none" math="1" shadow="0">
      <root>
        <mxCell id="BDtJ3RGO4c8hAKTm2JQ3-0" />
        <mxCell id="BDtJ3RGO4c8hAKTm2JQ3-1" parent="BDtJ3RGO4c8hAKTm2JQ3-0" />
        <mxCell id="BDtJ3RGO4c8hAKTm2JQ3-3" style="edgeStyle=orthogonalEdgeStyle;rounded=0;orthogonalLoop=1;jettySize=auto;html=1;exitX=0;exitY=0.5;exitDx=0;exitDy=0;" edge="1" parent="BDtJ3RGO4c8hAKTm2JQ3-1" source="BDtJ3RGO4c8hAKTm2JQ3-6" target="BDtJ3RGO4c8hAKTm2JQ3-11">
          <mxGeometry relative="1" as="geometry">
            <mxPoint x="417.5" y="320" as="targetPoint" />
          </mxGeometry>
        </mxCell>
        <mxCell id="BDtJ3RGO4c8hAKTm2JQ3-4" value="Yes" style="edgeLabel;html=1;align=center;verticalAlign=middle;resizable=0;points=[];" vertex="1" connectable="0" parent="BDtJ3RGO4c8hAKTm2JQ3-3">
          <mxGeometry x="-0.1037" relative="1" as="geometry">
            <mxPoint x="1" as="offset" />
          </mxGeometry>
        </mxCell>
        <mxCell id="BDtJ3RGO4c8hAKTm2JQ3-5" value="No" style="edgeStyle=orthogonalEdgeStyle;rounded=0;orthogonalLoop=1;jettySize=auto;html=1;entryX=0.5;entryY=0;entryDx=0;entryDy=0;exitX=1;exitY=0.5;exitDx=0;exitDy=0;" edge="1" parent="BDtJ3RGO4c8hAKTm2JQ3-1" source="BDtJ3RGO4c8hAKTm2JQ3-6" target="BDtJ3RGO4c8hAKTm2JQ3-18">
          <mxGeometry x="0.2195" relative="1" as="geometry">
            <mxPoint x="665" y="340" as="targetPoint" />
            <mxPoint y="1" as="offset" />
          </mxGeometry>
        </mxCell>
        <mxCell id="BDtJ3RGO4c8hAKTm2JQ3-6" value="Genset = &quot;On&quot;&lt;br&gt;AND&lt;br&gt;OR (LBG &amp;gt;0, SOC &amp;lt; trigger)" style="rhombus;whiteSpace=wrap;html=1;shadow=0;fontFamily=Helvetica;fontSize=12;align=center;strokeWidth=1;spacing=6;spacingTop=-4;verticalAlign=middle;rounded=0;" vertex="1" parent="BDtJ3RGO4c8hAKTm2JQ3-1">
          <mxGeometry x="427.51" y="120" width="254.99" height="100" as="geometry" />
        </mxCell>
        <mxCell id="BDtJ3RGO4c8hAKTm2JQ3-9" style="edgeStyle=orthogonalEdgeStyle;rounded=0;orthogonalLoop=1;jettySize=auto;html=1;entryX=0.5;entryY=0;entryDx=0;entryDy=0;endArrow=block;endFill=0;startSize=6;endSize=8;" edge="1" parent="BDtJ3RGO4c8hAKTm2JQ3-1" source="BDtJ3RGO4c8hAKTm2JQ3-10" target="BDtJ3RGO4c8hAKTm2JQ3-6">
          <mxGeometry relative="1" as="geometry">
            <mxPoint x="555.0050000000001" y="90" as="targetPoint" />
          </mxGeometry>
        </mxCell>
        <mxCell id="BDtJ3RGO4c8hAKTm2JQ3-10" value="START" style="rounded=0;whiteSpace=wrap;html=1;verticalAlign=middle;" vertex="1" parent="BDtJ3RGO4c8hAKTm2JQ3-1">
          <mxGeometry x="520.01" y="40" width="70" height="20" as="geometry" />
        </mxCell>
        <mxCell id="BDtJ3RGO4c8hAKTm2JQ3-11" value="GEN = max(&lt;br&gt;0,&lt;br&gt;min(LBG + BC, GC)&lt;br&gt;)" style="rounded=1;whiteSpace=wrap;html=1;verticalAlign=middle;fillColor=#d5e8d4;strokeColor=#82b366;fontSize=14;align=left;" vertex="1" parent="BDtJ3RGO4c8hAKTm2JQ3-1">
          <mxGeometry x="230.01" y="280" width="290" height="95" as="geometry" />
        </mxCell>
        <mxCell id="BDtJ3RGO4c8hAKTm2JQ3-12" value="&lt;h1&gt;&lt;span style=&quot;background-color: initial;&quot;&gt;Generator input&lt;/span&gt;&lt;/h1&gt;&lt;h1&gt;&lt;span style=&quot;background-color: initial; font-size: 12px; font-weight: normal;&quot;&gt;Flow diagram for genset input&lt;/span&gt;&lt;br&gt;&lt;/h1&gt;" style="text;html=1;strokeColor=none;fillColor=none;spacing=5;spacingTop=-20;whiteSpace=wrap;overflow=hidden;rounded=0;" vertex="1" parent="BDtJ3RGO4c8hAKTm2JQ3-1">
          <mxGeometry x="20" y="10" width="230" height="80" as="geometry" />
        </mxCell>
        <mxCell id="BDtJ3RGO4c8hAKTm2JQ3-13" value="&lt;b&gt;&lt;u&gt;KEY&lt;/u&gt;&lt;/b&gt;&lt;br&gt;GP - grid purchase&lt;br&gt;BEC - battery energy capacity&lt;br&gt;TOU - time of use&lt;br&gt;GCG - grid charge goal&lt;br&gt;BEL - battery energy level&amp;nbsp;&lt;br&gt;BCP - battery charge power&lt;br&gt;LAG - load after grid&lt;br&gt;LAP - load after PVE&lt;br&gt;BC - Battery charge&lt;br&gt;BDP - BESS discharge power&amp;nbsp;&lt;br&gt;PV - PV input&lt;br&gt;EPV - excess pv&lt;br&gt;BD - BESS discharge&lt;br&gt;GEN - Genset input&lt;br&gt;LBG - Load before generator&lt;br&gt;GC - Genset capacity" style="text;html=1;align=left;verticalAlign=middle;resizable=0;points=[];autosize=1;strokeColor=none;fillColor=none;rounded=0;" vertex="1" parent="BDtJ3RGO4c8hAKTm2JQ3-1">
          <mxGeometry x="930" y="20" width="190" height="260" as="geometry" />
        </mxCell>
        <mxCell id="BDtJ3RGO4c8hAKTm2JQ3-14" value="Yes" style="edgeStyle=orthogonalEdgeStyle;rounded=0;orthogonalLoop=1;jettySize=auto;html=1;endArrow=block;endFill=0;startSize=6;endSize=8;" edge="1" parent="BDtJ3RGO4c8hAKTm2JQ3-1">
          <mxGeometry relative="1" as="geometry">
            <mxPoint x="567.5" y="370" as="sourcePoint" />
          </mxGeometry>
        </mxCell>
        <mxCell id="BDtJ3RGO4c8hAKTm2JQ3-15" value="Yes" style="edgeStyle=orthogonalEdgeStyle;rounded=0;orthogonalLoop=1;jettySize=auto;html=1;endArrow=block;endFill=0;startSize=6;endSize=8;entryX=0.5;entryY=0;entryDx=0;entryDy=0;verticalAlign=middle;" edge="1" parent="BDtJ3RGO4c8hAKTm2JQ3-1">
          <mxGeometry x="0.6" y="25" relative="1" as="geometry">
            <mxPoint x="365" y="530" as="targetPoint" />
            <mxPoint as="offset" />
          </mxGeometry>
        </mxCell>
        <mxCell id="BDtJ3RGO4c8hAKTm2JQ3-18" value="GEN = 0" style="rounded=1;whiteSpace=wrap;html=1;verticalAlign=middle;fillColor=#d5e8d4;strokeColor=#82b366;fontSize=14;" vertex="1" parent="BDtJ3RGO4c8hAKTm2JQ3-1">
          <mxGeometry x="650" y="240" width="140" height="30" as="geometry" />
        </mxCell>
        <mxCell id="BDtJ3RGO4c8hAKTm2JQ3-19" value="\(\eta_{discharge} = \eta_{charge} = \sqrt{\eta_{rt}}\)" style="text;html=1;align=center;verticalAlign=middle;resizable=0;points=[];autosize=1;strokeColor=none;fillColor=none;fontSize=19;" vertex="1" parent="BDtJ3RGO4c8hAKTm2JQ3-1">
          <mxGeometry x="585" y="460" width="460" height="40" as="geometry" />
        </mxCell>
        <mxCell id="BDtJ3RGO4c8hAKTm2JQ3-21" value="MIN(cap+charge-discharge,bessSize))" style="text;whiteSpace=wrap;html=1;fontSize=14;" vertex="1" parent="BDtJ3RGO4c8hAKTm2JQ3-1">
          <mxGeometry x="800" y="630" width="270" height="40" as="geometry" />
        </mxCell>
        <mxCell id="BDtJ3RGO4c8hAKTm2JQ3-22" value="&lt;pre style=&quot;margin-top: 0px; margin-bottom: calc(var(--s-prose-spacing) + 0.4em); padding: var(--su12); border: 0px; font-variant-numeric: inherit; font-variant-east-asian: inherit; font-stretch: inherit; line-height: var(--lh-md); font-family: var(--ff-mono); vertical-align: baseline; box-sizing: inherit; width: auto; max-height: 600px; overflow: auto; background-color: var(--highlight-bg); border-radius: var(--br-md); color: var(--highlight-color); overflow-wrap: normal; text-align: left;&quot; class=&quot;lang-tex s-code-block&quot;&gt;&lt;br&gt;&lt;/pre&gt;" style="text;html=1;align=center;verticalAlign=middle;resizable=0;points=[];autosize=1;strokeColor=none;fillColor=none;fontSize=14;" vertex="1" parent="BDtJ3RGO4c8hAKTm2JQ3-1">
          <mxGeometry x="430" y="665" width="20" height="30" as="geometry" />
        </mxCell>
        <mxCell id="BDtJ3RGO4c8hAKTm2JQ3-23" value="$$ BEL_{i+1} = BEL_i + charge \cdot \sqrt{\eta_{rt}} - \frac{discharge}{\sqrt{\eta_{rt}}} $$" style="text;html=1;align=center;verticalAlign=middle;resizable=0;points=[];autosize=1;strokeColor=none;fillColor=none;fontSize=14;" vertex="1" parent="BDtJ3RGO4c8hAKTm2JQ3-1">
          <mxGeometry x="570" y="510" width="570" height="30" as="geometry" />
        </mxCell>
      </root>
    </mxGraphModel>
  </diagram>
  <diagram name="loadAfterGrid" id="5_ZTT6Rr4enQcu8NSt9g">
    <mxGraphModel dx="1360" dy="806" grid="1" gridSize="10" guides="1" tooltips="1" connect="1" arrows="1" fold="1" page="1" pageScale="1" pageWidth="1169" pageHeight="827" math="0" shadow="0">
      <root>
        <mxCell id="iTIY_GPRaCVIgb1ChVSd-0" />
        <mxCell id="iTIY_GPRaCVIgb1ChVSd-1" parent="iTIY_GPRaCVIgb1ChVSd-0" />
        <mxCell id="iTIY_GPRaCVIgb1ChVSd-2" value="" style="rounded=0;html=1;jettySize=auto;orthogonalLoop=1;fontSize=11;endArrow=block;endFill=0;endSize=8;strokeWidth=1;shadow=0;labelBackgroundColor=none;edgeStyle=orthogonalEdgeStyle;exitX=0.5;exitY=1;exitDx=0;exitDy=0;" parent="iTIY_GPRaCVIgb1ChVSd-1" source="iTIY_GPRaCVIgb1ChVSd-9" target="iTIY_GPRaCVIgb1ChVSd-5" edge="1">
          <mxGeometry relative="1" as="geometry">
            <mxPoint x="220" y="120" as="sourcePoint" />
          </mxGeometry>
        </mxCell>
        <mxCell id="iTIY_GPRaCVIgb1ChVSd-4" value="No" style="edgeStyle=orthogonalEdgeStyle;rounded=0;html=1;jettySize=auto;orthogonalLoop=1;fontSize=11;endArrow=block;endFill=0;endSize=8;strokeWidth=1;shadow=0;labelBackgroundColor=none;exitX=1;exitY=0.5;exitDx=0;exitDy=0;entryX=0;entryY=0.5;entryDx=0;entryDy=0;" parent="iTIY_GPRaCVIgb1ChVSd-1" source="iTIY_GPRaCVIgb1ChVSd-5" target="iTIY_GPRaCVIgb1ChVSd-10" edge="1">
          <mxGeometry x="0.1111" y="-10" relative="1" as="geometry">
            <mxPoint as="offset" />
            <mxPoint x="523.51" y="180" as="targetPoint" />
            <mxPoint x="500" y="179.84000000000003" as="sourcePoint" />
          </mxGeometry>
        </mxCell>
        <mxCell id="MKZOl4OTzbjgyRpHgoDu-2" value="Yes" style="edgeStyle=none;rounded=0;orthogonalLoop=1;jettySize=auto;html=1;exitX=0;exitY=0.5;exitDx=0;exitDy=0;endArrow=block;endFill=0;startSize=6;endSize=8;" parent="iTIY_GPRaCVIgb1ChVSd-1" source="iTIY_GPRaCVIgb1ChVSd-5" target="MKZOl4OTzbjgyRpHgoDu-0" edge="1">
          <mxGeometry x="0.2308" y="10" relative="1" as="geometry">
            <mxPoint as="offset" />
          </mxGeometry>
        </mxCell>
        <mxCell id="iTIY_GPRaCVIgb1ChVSd-5" value="TOU = O" style="rhombus;whiteSpace=wrap;html=1;shadow=0;fontFamily=Helvetica;fontSize=12;align=center;strokeWidth=1;spacing=6;spacingTop=-4;" parent="iTIY_GPRaCVIgb1ChVSd-1" vertex="1">
          <mxGeometry x="300" y="140" width="130" height="80" as="geometry" />
        </mxCell>
        <mxCell id="iTIY_GPRaCVIgb1ChVSd-6" value="&lt;b&gt;&lt;u&gt;KEY&lt;/u&gt;&lt;/b&gt;&lt;br&gt;GP - grid purchase&lt;br&gt;BEC - battery energy capacity&lt;br&gt;TOU - time of use&lt;br&gt;GCG - grid charge goal&lt;br&gt;BE - battery energy&amp;nbsp;&lt;br&gt;BCP - battery charge power&lt;br&gt;LAG - load after grid&lt;br&gt;LAP - load after PV" style="text;html=1;align=left;verticalAlign=middle;resizable=0;points=[];autosize=1;strokeColor=none;fillColor=none;" parent="iTIY_GPRaCVIgb1ChVSd-1" vertex="1">
          <mxGeometry x="670" y="5" width="160" height="130" as="geometry" />
        </mxCell>
        <mxCell id="iTIY_GPRaCVIgb1ChVSd-9" value="START" style="rounded=1;whiteSpace=wrap;html=1;" parent="iTIY_GPRaCVIgb1ChVSd-1" vertex="1">
          <mxGeometry x="330" y="90" width="70" height="20" as="geometry" />
        </mxCell>
        <mxCell id="iTIY_GPRaCVIgb1ChVSd-10" value="LAG =&amp;nbsp; LAP" style="rounded=1;whiteSpace=wrap;html=1;" parent="iTIY_GPRaCVIgb1ChVSd-1" vertex="1">
          <mxGeometry x="510" y="160" width="115" height="40" as="geometry" />
        </mxCell>
        <mxCell id="iTIY_GPRaCVIgb1ChVSd-14" value="&lt;h1&gt;Load after grid&lt;/h1&gt;&lt;p&gt;Load after grid flow diagram&lt;/p&gt;" style="text;html=1;strokeColor=none;fillColor=none;spacing=5;spacingTop=-20;whiteSpace=wrap;overflow=hidden;rounded=0;" parent="iTIY_GPRaCVIgb1ChVSd-1" vertex="1">
          <mxGeometry x="20" y="10" width="190" height="120" as="geometry" />
        </mxCell>
        <mxCell id="MKZOl4OTzbjgyRpHgoDu-0" value="LAG =&amp;nbsp; 0" style="rounded=1;whiteSpace=wrap;html=1;" parent="iTIY_GPRaCVIgb1ChVSd-1" vertex="1">
          <mxGeometry x="120" y="160" width="115" height="40" as="geometry" />
        </mxCell>
      </root>
    </mxGraphModel>
  </diagram>
  <diagram name="energyBalance" id="VY54VDPdd7NwpJF9ftW2">
    <mxGraphModel dx="1360" dy="806" grid="1" gridSize="10" guides="1" tooltips="1" connect="1" arrows="1" fold="1" page="1" pageScale="1" pageWidth="1169" pageHeight="827" background="none" math="1" shadow="0">
      <root>
        <mxCell id="bpXd2vlqVgXWWFcCKrqM-0" />
        <mxCell id="bpXd2vlqVgXWWFcCKrqM-1" parent="bpXd2vlqVgXWWFcCKrqM-0" />
        <mxCell id="bpXd2vlqVgXWWFcCKrqM-3" value="" style="rounded=1;whiteSpace=wrap;html=1;dashed=1;fillColor=none;arcSize=10;strokeColor=#82b366;strokeWidth=3;spacingRight=500;spacingBottom=50;spacingTop=200;movable=1;resizable=1;rotatable=1;deletable=1;editable=1;connectable=1;fontSize=10;" parent="bpXd2vlqVgXWWFcCKrqM-1" vertex="1">
          <mxGeometry x="250" y="122.5" width="540" height="530" as="geometry" />
        </mxCell>
        <mxCell id="bpXd2vlqVgXWWFcCKrqM-9" value="&lt;h1&gt;&lt;span style=&quot;background-color: initial;&quot;&gt;Battery balance&amp;nbsp;&lt;/span&gt;&lt;/h1&gt;&lt;h1&gt;&lt;span style=&quot;font-size: 12px; font-weight: 400;&quot;&gt;Complete energy balance for system.&amp;nbsp;&lt;/span&gt;&lt;/h1&gt;" style="text;html=1;strokeColor=none;fillColor=none;spacing=5;spacingTop=-20;whiteSpace=wrap;overflow=hidden;rounded=0;" parent="bpXd2vlqVgXWWFcCKrqM-1" vertex="1">
          <mxGeometry x="20" y="10" width="230" height="80" as="geometry" />
        </mxCell>
        <mxCell id="iWE5cc2lIVNOjAc23-8p-0" value="mini grid" style="text;html=1;strokeColor=#82b366;fillColor=#d5e8d4;align=center;verticalAlign=middle;whiteSpace=wrap;rounded=1;arcSize=50;movable=1;resizable=1;rotatable=1;deletable=1;editable=1;connectable=1;fontSize=11;direction=west;" parent="bpXd2vlqVgXWWFcCKrqM-1" vertex="1">
          <mxGeometry x="280" y="130" width="92.51" height="30" as="geometry" />
        </mxCell>
        <mxCell id="iWE5cc2lIVNOjAc23-8p-1" value="&lt;div style=&quot;&quot;&gt;&lt;span style=&quot;background-color: initial;&quot;&gt;&lt;b&gt;&lt;u&gt;Variables&lt;/u&gt;&lt;/b&gt;&lt;/span&gt;&lt;/div&gt;&lt;div&gt;Grid purchase&lt;/div&gt;&lt;div&gt;Load after grid&lt;/div&gt;&lt;div&gt;BESS Charge (Input)&lt;/div&gt;&lt;div&gt;PV Feedback&lt;/div&gt;&lt;div&gt;BESS Discharge (output)&lt;/div&gt;&lt;div&gt;BESS capacity&lt;/div&gt;&lt;div&gt;BES SOC&lt;/div&gt;&lt;div&gt;Load after BESS&lt;/div&gt;&lt;div&gt;Generator input&lt;/div&gt;&lt;div&gt;Load after genset&lt;/div&gt;&lt;div&gt;Cost of Fuel used&lt;/div&gt;&lt;div&gt;Cost of Grid&amp;nbsp;&lt;/div&gt;" style="text;html=1;strokeColor=none;fillColor=none;align=left;verticalAlign=middle;whiteSpace=wrap;rounded=0;" parent="bpXd2vlqVgXWWFcCKrqM-1" vertex="1">
          <mxGeometry x="1010" y="17.509999999999998" width="140" height="190" as="geometry" />
        </mxCell>
        <mxCell id="iWE5cc2lIVNOjAc23-8p-3" style="edgeStyle=orthogonalEdgeStyle;rounded=0;orthogonalLoop=1;jettySize=auto;html=1;exitX=0.5;exitY=1;exitDx=0;exitDy=0;startArrow=classic;startFill=1;endArrow=none;endFill=0;" parent="bpXd2vlqVgXWWFcCKrqM-1" source="iWE5cc2lIVNOjAc23-8p-1" target="iWE5cc2lIVNOjAc23-8p-1" edge="1">
          <mxGeometry relative="1" as="geometry" />
        </mxCell>
        <mxCell id="iWE5cc2lIVNOjAc23-8p-9" value="PV input" style="edgeStyle=orthogonalEdgeStyle;rounded=0;orthogonalLoop=1;jettySize=auto;html=1;exitX=1;exitY=0.5;exitDx=0;exitDy=0;startArrow=none;startFill=0;endArrow=classic;endFill=1;entryX=0.25;entryY=0.5;entryDx=0;entryDy=0;entryPerimeter=0;movable=1;resizable=1;rotatable=1;deletable=1;editable=1;connectable=1;fontSize=10;strokeColor=#FFD966;strokeWidth=3;" parent="bpXd2vlqVgXWWFcCKrqM-1" source="iWE5cc2lIVNOjAc23-8p-6" target="iWE5cc2lIVNOjAc23-8p-28" edge="1">
          <mxGeometry relative="1" as="geometry">
            <mxPoint x="220" y="450" as="targetPoint" />
          </mxGeometry>
        </mxCell>
        <mxCell id="iWE5cc2lIVNOjAc23-8p-6" value="Solar&lt;br style=&quot;font-size: 14px;&quot;&gt;" style="ellipse;whiteSpace=wrap;html=1;aspect=fixed;fillColor=#fff2cc;strokeColor=#d6b656;fontStyle=1;fontSize=14;movable=1;resizable=1;rotatable=1;deletable=1;editable=1;connectable=1;" parent="bpXd2vlqVgXWWFcCKrqM-1" vertex="1">
          <mxGeometry x="30" y="355" width="80" height="80" as="geometry" />
        </mxCell>
        <mxCell id="iWE5cc2lIVNOjAc23-8p-12" value="Grid purchase" style="edgeStyle=orthogonalEdgeStyle;rounded=0;orthogonalLoop=1;jettySize=auto;html=1;startArrow=none;startFill=0;endArrow=classic;endFill=1;exitX=1;exitY=0.5;exitDx=0;exitDy=0;entryX=0.25;entryY=0.5;entryDx=0;entryDy=0;entryPerimeter=0;movable=1;resizable=1;rotatable=1;deletable=1;editable=1;connectable=1;fontSize=10;strokeColor=#A9C4EB;strokeWidth=3;" parent="bpXd2vlqVgXWWFcCKrqM-1" source="iWE5cc2lIVNOjAc23-8p-10" target="iWE5cc2lIVNOjAc23-8p-33" edge="1">
          <mxGeometry x="-0.3714" relative="1" as="geometry">
            <mxPoint x="720" y="130" as="targetPoint" />
            <mxPoint x="670" y="20" as="sourcePoint" />
            <Array as="points">
              <mxPoint x="723" y="70" />
              <mxPoint x="723" y="178" />
            </Array>
            <mxPoint as="offset" />
          </mxGeometry>
        </mxCell>
        <mxCell id="iWE5cc2lIVNOjAc23-8p-10" value="Grid" style="ellipse;whiteSpace=wrap;html=1;aspect=fixed;fillColor=#dae8fc;strokeColor=#6c8ebf;fontStyle=1;fontSize=14;movable=1;resizable=1;rotatable=1;deletable=1;editable=1;connectable=1;" parent="bpXd2vlqVgXWWFcCKrqM-1" vertex="1">
          <mxGeometry x="525" y="30" width="80" height="80" as="geometry" />
        </mxCell>
        <mxCell id="iWE5cc2lIVNOjAc23-8p-15" value="Genset input" style="edgeStyle=orthogonalEdgeStyle;rounded=0;orthogonalLoop=1;jettySize=auto;html=1;exitX=0.5;exitY=0;exitDx=0;exitDy=0;startArrow=none;startFill=0;endArrow=classic;endFill=1;entryX=0.25;entryY=0.5;entryDx=0;entryDy=0;entryPerimeter=0;movable=1;resizable=1;rotatable=1;deletable=1;editable=1;connectable=1;fontSize=10;strokeColor=#B3B3B3;strokeWidth=3;" parent="bpXd2vlqVgXWWFcCKrqM-1" source="iWE5cc2lIVNOjAc23-8p-14" target="iWE5cc2lIVNOjAc23-8p-36" edge="1">
          <mxGeometry relative="1" as="geometry">
            <mxPoint x="560" y="610" as="targetPoint" />
            <mxPoint as="offset" />
          </mxGeometry>
        </mxCell>
        <mxCell id="iWE5cc2lIVNOjAc23-8p-14" value="Genset" style="ellipse;whiteSpace=wrap;html=1;aspect=fixed;fillColor=#f5f5f5;strokeColor=#666666;fontStyle=1;fontSize=14;fontColor=#333333;movable=1;resizable=1;rotatable=1;deletable=1;editable=1;connectable=1;" parent="bpXd2vlqVgXWWFcCKrqM-1" vertex="1">
          <mxGeometry x="525" y="730" width="80" height="80" as="geometry" />
        </mxCell>
        <mxCell id="iWE5cc2lIVNOjAc23-8p-107" value="BESS to load" style="edgeStyle=elbowEdgeStyle;rounded=0;jumpStyle=arc;orthogonalLoop=1;jettySize=auto;html=1;fontSize=10;startArrow=none;startFill=0;endArrow=classic;endFill=1;strokeColor=#82b366;strokeWidth=3;fillColor=#d5e8d4;" parent="bpXd2vlqVgXWWFcCKrqM-1" source="iWE5cc2lIVNOjAc23-8p-18" target="iWE5cc2lIVNOjAc23-8p-24" edge="1">
          <mxGeometry relative="1" as="geometry" />
        </mxCell>
        <mxCell id="iWE5cc2lIVNOjAc23-8p-18" value="BESS" style="shape=cylinder3;whiteSpace=wrap;html=1;boundedLbl=1;backgroundOutline=1;size=15;fontSize=14;fontStyle=1;fillColor=#d5e8d4;strokeColor=#82b366;movable=1;resizable=1;rotatable=1;deletable=1;editable=1;connectable=1;" parent="bpXd2vlqVgXWWFcCKrqM-1" vertex="1">
          <mxGeometry x="455" y="230" width="60" height="80" as="geometry" />
        </mxCell>
        <mxCell id="iWE5cc2lIVNOjAc23-8p-24" value="Load" style="rhombus;whiteSpace=wrap;html=1;fontSize=14;fontStyle=1;fillColor=#f8cecc;strokeColor=#b85450;movable=1;resizable=1;rotatable=1;deletable=1;editable=1;connectable=1;" parent="bpXd2vlqVgXWWFcCKrqM-1" vertex="1">
          <mxGeometry x="445" y="400" width="80" height="80" as="geometry" />
        </mxCell>
        <mxCell id="iWE5cc2lIVNOjAc23-8p-26" value="PV to load" style="edgeStyle=orthogonalEdgeStyle;rounded=0;orthogonalLoop=1;jettySize=auto;html=1;startArrow=none;startFill=0;endArrow=classic;endFill=1;entryX=0;entryY=0.5;entryDx=0;entryDy=0;movable=1;resizable=1;rotatable=1;deletable=1;editable=1;connectable=1;fontSize=10;fillColor=#fff2cc;strokeColor=#FFD966;strokeWidth=3;exitX=0.311;exitY=0.983;exitDx=0;exitDy=0;exitPerimeter=0;" parent="bpXd2vlqVgXWWFcCKrqM-1" source="iWE5cc2lIVNOjAc23-8p-28" target="iWE5cc2lIVNOjAc23-8p-24" edge="1">
          <mxGeometry relative="1" as="geometry">
            <mxPoint x="287" y="410" as="sourcePoint" />
            <mxPoint x="390" y="441" as="targetPoint" />
            <Array as="points">
              <mxPoint x="280" y="418" />
              <mxPoint x="280" y="418" />
              <mxPoint x="280" y="440" />
            </Array>
          </mxGeometry>
        </mxCell>
        <mxCell id="iWE5cc2lIVNOjAc23-8p-27" value="PV to BESS" style="edgeStyle=orthogonalEdgeStyle;rounded=0;orthogonalLoop=1;jettySize=auto;html=1;exitX=1;exitY=0.5;exitDx=0;exitDy=0;startArrow=none;startFill=0;endArrow=classic;endFill=1;entryX=0;entryY=0.5;entryDx=0;entryDy=0;entryPerimeter=0;exitPerimeter=0;movable=1;resizable=1;rotatable=1;deletable=1;editable=1;connectable=1;fontSize=10;fillColor=#fff2cc;strokeColor=#FFD966;strokeWidth=3;" parent="bpXd2vlqVgXWWFcCKrqM-1" source="iWE5cc2lIVNOjAc23-8p-28" target="iWE5cc2lIVNOjAc23-8p-18" edge="1">
          <mxGeometry x="0.457" relative="1" as="geometry">
            <mxPoint x="510" y="330" as="sourcePoint" />
            <mxPoint x="620" y="385" as="targetPoint" />
            <Array as="points">
              <mxPoint x="320" y="395" />
              <mxPoint x="320" y="270" />
            </Array>
            <mxPoint as="offset" />
          </mxGeometry>
        </mxCell>
        <mxCell id="iWE5cc2lIVNOjAc23-8p-31" value="Grid feedback / PV feedback" style="edgeStyle=orthogonalEdgeStyle;rounded=0;orthogonalLoop=1;jettySize=auto;html=1;exitX=0.316;exitY=-0.011;exitDx=0;exitDy=0;exitPerimeter=0;fontSize=10;startArrow=none;startFill=0;endArrow=classic;endFill=1;entryX=0;entryY=0.5;entryDx=0;entryDy=0;movable=1;resizable=1;rotatable=1;deletable=1;editable=1;connectable=1;fillColor=#fff2cc;strokeColor=#FFD966;strokeWidth=3;" parent="bpXd2vlqVgXWWFcCKrqM-1" source="iWE5cc2lIVNOjAc23-8p-28" target="iWE5cc2lIVNOjAc23-8p-10" edge="1">
          <mxGeometry x="0.0527" relative="1" as="geometry">
            <mxPoint x="690" y="60" as="targetPoint" />
            <Array as="points">
              <mxPoint x="281" y="190" />
              <mxPoint x="490" y="190" />
              <mxPoint x="490" y="70" />
            </Array>
            <mxPoint as="offset" />
          </mxGeometry>
        </mxCell>
        <mxCell id="iWE5cc2lIVNOjAc23-8p-28" value="" style="shape=xor;whiteSpace=wrap;html=1;fontSize=10;movable=1;resizable=1;rotatable=1;deletable=1;editable=1;connectable=1;fillColor=#fff2cc;strokeColor=#d6b656;" parent="bpXd2vlqVgXWWFcCKrqM-1" vertex="1">
          <mxGeometry x="270" y="372.5" width="33.75" height="45" as="geometry" />
        </mxCell>
        <mxCell id="iWE5cc2lIVNOjAc23-8p-34" value="Grid to BESS" style="edgeStyle=orthogonalEdgeStyle;rounded=0;orthogonalLoop=1;jettySize=auto;html=1;exitX=0.7;exitY=0.9;exitDx=0;exitDy=0;exitPerimeter=0;fontSize=10;startArrow=none;startFill=0;endArrow=classic;endFill=1;entryX=1;entryY=0;entryDx=0;entryDy=27.5;entryPerimeter=0;movable=1;resizable=1;rotatable=1;deletable=1;editable=1;connectable=1;strokeColor=#A9C4EB;strokeWidth=3;" parent="bpXd2vlqVgXWWFcCKrqM-1" source="iWE5cc2lIVNOjAc23-8p-33" target="iWE5cc2lIVNOjAc23-8p-18" edge="1">
          <mxGeometry x="-0.4742" relative="1" as="geometry">
            <mxPoint x="580" y="289.9999999999999" as="targetPoint" />
            <Array as="points">
              <mxPoint x="570" y="194" />
              <mxPoint x="570" y="258" />
              <mxPoint x="515" y="258" />
            </Array>
            <mxPoint as="offset" />
          </mxGeometry>
        </mxCell>
        <mxCell id="iWE5cc2lIVNOjAc23-8p-35" value="Grid to load" style="edgeStyle=orthogonalEdgeStyle;rounded=0;orthogonalLoop=1;jettySize=auto;html=1;exitX=1;exitY=0.5;exitDx=0;exitDy=0;exitPerimeter=0;entryX=1;entryY=0.5;entryDx=0;entryDy=0;fontSize=10;startArrow=none;startFill=0;endArrow=classic;endFill=1;movable=1;resizable=1;rotatable=1;deletable=1;editable=1;connectable=1;strokeColor=#A9C4EB;strokeWidth=3;" parent="bpXd2vlqVgXWWFcCKrqM-1" source="iWE5cc2lIVNOjAc23-8p-33" target="iWE5cc2lIVNOjAc23-8p-24" edge="1">
          <mxGeometry x="-0.1873" relative="1" as="geometry">
            <Array as="points">
              <mxPoint x="723" y="440" />
            </Array>
            <mxPoint as="offset" />
          </mxGeometry>
        </mxCell>
        <mxCell id="iWE5cc2lIVNOjAc23-8p-33" value="" style="shape=xor;whiteSpace=wrap;html=1;fontSize=10;direction=south;movable=1;resizable=1;rotatable=1;deletable=1;editable=1;connectable=1;fillColor=#dae8fc;strokeColor=#6c8ebf;" parent="bpXd2vlqVgXWWFcCKrqM-1" vertex="1">
          <mxGeometry x="700.005" y="170.005" width="45" height="33.75" as="geometry" />
        </mxCell>
        <mxCell id="iWE5cc2lIVNOjAc23-8p-37" value="Genset to load" style="edgeStyle=orthogonalEdgeStyle;rounded=0;orthogonalLoop=1;jettySize=auto;html=1;entryX=0.5;entryY=1;entryDx=0;entryDy=0;fontSize=10;startArrow=none;startFill=0;endArrow=classic;endFill=1;movable=1;resizable=1;rotatable=1;deletable=1;editable=1;connectable=1;strokeColor=#B3B3B3;strokeWidth=3;" parent="bpXd2vlqVgXWWFcCKrqM-1" source="iWE5cc2lIVNOjAc23-8p-36" target="iWE5cc2lIVNOjAc23-8p-24" edge="1">
          <mxGeometry relative="1" as="geometry" />
        </mxCell>
        <mxCell id="iWE5cc2lIVNOjAc23-8p-38" value="Genset to BESS" style="rounded=0;orthogonalLoop=1;jettySize=auto;html=1;exitX=1;exitY=0.5;exitDx=0;exitDy=0;exitPerimeter=0;entryX=1;entryY=0;entryDx=0;entryDy=52.5;entryPerimeter=0;fontSize=10;startArrow=none;startFill=0;endArrow=classic;endFill=1;edgeStyle=elbowEdgeStyle;jumpStyle=arc;movable=1;resizable=1;rotatable=1;deletable=1;editable=1;connectable=1;strokeColor=#B3B3B3;strokeWidth=3;" parent="bpXd2vlqVgXWWFcCKrqM-1" source="iWE5cc2lIVNOjAc23-8p-36" target="iWE5cc2lIVNOjAc23-8p-18" edge="1">
          <mxGeometry x="-0.4213" relative="1" as="geometry">
            <Array as="points">
              <mxPoint x="565" y="470" />
            </Array>
            <mxPoint as="offset" />
          </mxGeometry>
        </mxCell>
        <mxCell id="iWE5cc2lIVNOjAc23-8p-36" value="" style="shape=xor;whiteSpace=wrap;html=1;fontSize=10;direction=north;movable=1;resizable=1;rotatable=1;deletable=1;editable=1;connectable=1;fillColor=#f5f5f5;fontColor=#333333;strokeColor=#666666;" parent="bpXd2vlqVgXWWFcCKrqM-1" vertex="1">
          <mxGeometry x="542.495" y="610.005" width="45" height="33.75" as="geometry" />
        </mxCell>
        <mxCell id="iWE5cc2lIVNOjAc23-8p-44" value="\(PV_{total} = PV_{excess} + PV_{load}\)&amp;nbsp; &amp;nbsp; &amp;nbsp;(i)" style="text;html=1;align=left;verticalAlign=middle;resizable=0;points=[];autosize=1;strokeColor=none;fillColor=none;fontSize=11;" parent="bpXd2vlqVgXWWFcCKrqM-1" vertex="1">
          <mxGeometry x="875" y="372.5" width="250" height="30" as="geometry" />
        </mxCell>
        <mxCell id="iWE5cc2lIVNOjAc23-8p-45" value="&lt;h1&gt;Formulae&lt;/h1&gt;&lt;p&gt;Formulae used to calculate various variables.&lt;/p&gt;" style="text;html=1;strokeColor=none;fillColor=none;spacing=5;spacingTop=-20;whiteSpace=wrap;overflow=hidden;rounded=0;fontSize=11;" parent="bpXd2vlqVgXWWFcCKrqM-1" vertex="1">
          <mxGeometry x="875" y="292.5" width="280" height="62.5" as="geometry" />
        </mxCell>
        <mxCell id="iWE5cc2lIVNOjAc23-8p-63" value="\(PV_{excess} = PV_{bess} + PV_{feed}\)&amp;nbsp; &amp;nbsp;(ii)" style="text;html=1;align=left;verticalAlign=middle;resizable=0;points=[];autosize=1;strokeColor=none;fillColor=none;fontSize=11;" parent="bpXd2vlqVgXWWFcCKrqM-1" vertex="1">
          <mxGeometry x="875" y="413.5" width="250" height="30" as="geometry" />
        </mxCell>
        <mxCell id="iWE5cc2lIVNOjAc23-8p-64" value="\( PV_{load} = L_{total} - L_{apv}\)&amp;nbsp; &amp;nbsp; (iii)" style="text;html=1;align=left;verticalAlign=middle;resizable=0;points=[];autosize=1;strokeColor=none;fillColor=none;fontSize=11;" parent="bpXd2vlqVgXWWFcCKrqM-1" vertex="1">
          <mxGeometry x="875" y="450" width="220" height="30" as="geometry" />
        </mxCell>
        <mxCell id="iWE5cc2lIVNOjAc23-8p-65" value="" style="shape=table;html=1;whiteSpace=wrap;startSize=0;container=1;collapsible=0;childLayout=tableLayout;fontSize=9;" parent="bpXd2vlqVgXWWFcCKrqM-1" vertex="1">
          <mxGeometry x="820" y="17.50999999999999" width="190" height="182.5" as="geometry" />
        </mxCell>
        <mxCell id="iWE5cc2lIVNOjAc23-8p-66" value="" style="shape=tableRow;horizontal=0;startSize=0;swimlaneHead=0;swimlaneBody=0;top=0;left=0;bottom=0;right=0;collapsible=0;dropTarget=0;fillColor=none;points=[[0,0.5],[1,0.5]];portConstraint=eastwest;fontSize=9;" parent="iWE5cc2lIVNOjAc23-8p-65" vertex="1">
          <mxGeometry width="190" height="23" as="geometry" />
        </mxCell>
        <mxCell id="iWE5cc2lIVNOjAc23-8p-67" value="Variable" style="shape=partialRectangle;html=1;whiteSpace=wrap;connectable=0;fillColor=#f5f5f5;top=0;left=0;bottom=0;right=0;overflow=hidden;fontSize=9;fontStyle=1;strokeColor=#666666;fontColor=#333333;" parent="iWE5cc2lIVNOjAc23-8p-66" vertex="1">
          <mxGeometry width="95" height="23" as="geometry">
            <mxRectangle width="95" height="23" as="alternateBounds" />
          </mxGeometry>
        </mxCell>
        <mxCell id="iWE5cc2lIVNOjAc23-8p-68" value="Symbol" style="shape=partialRectangle;html=1;whiteSpace=wrap;connectable=0;fillColor=#f5f5f5;top=0;left=0;bottom=0;right=0;overflow=hidden;fontSize=9;fontStyle=1;strokeColor=#666666;fontColor=#333333;" parent="iWE5cc2lIVNOjAc23-8p-66" vertex="1">
          <mxGeometry x="95" width="95" height="23" as="geometry">
            <mxRectangle width="95" height="23" as="alternateBounds" />
          </mxGeometry>
        </mxCell>
        <mxCell id="iWE5cc2lIVNOjAc23-8p-70" value="" style="shape=tableRow;horizontal=0;startSize=0;swimlaneHead=0;swimlaneBody=0;top=0;left=0;bottom=0;right=0;collapsible=0;dropTarget=0;fillColor=none;points=[[0,0.5],[1,0.5]];portConstraint=eastwest;fontSize=9;" parent="iWE5cc2lIVNOjAc23-8p-65" vertex="1">
          <mxGeometry y="23" width="190" height="23" as="geometry" />
        </mxCell>
        <mxCell id="iWE5cc2lIVNOjAc23-8p-71" value="Load" style="shape=partialRectangle;html=1;whiteSpace=wrap;connectable=0;fillColor=none;top=0;left=0;bottom=0;right=0;overflow=hidden;fontSize=9;" parent="iWE5cc2lIVNOjAc23-8p-70" vertex="1">
          <mxGeometry width="95" height="23" as="geometry">
            <mxRectangle width="95" height="23" as="alternateBounds" />
          </mxGeometry>
        </mxCell>
        <mxCell id="iWE5cc2lIVNOjAc23-8p-72" value="&lt;span style=&quot;font-size: 8px; text-align: left;&quot;&gt;\(L\)&amp;nbsp;&lt;/span&gt;&lt;span style=&quot;font-size: 8px; text-align: left;&quot;&gt; &lt;/span&gt;" style="shape=partialRectangle;html=1;whiteSpace=wrap;connectable=0;fillColor=none;top=0;left=0;bottom=0;right=0;overflow=hidden;fontSize=8;" parent="iWE5cc2lIVNOjAc23-8p-70" vertex="1">
          <mxGeometry x="95" width="95" height="23" as="geometry">
            <mxRectangle width="95" height="23" as="alternateBounds" />
          </mxGeometry>
        </mxCell>
        <mxCell id="iWE5cc2lIVNOjAc23-8p-74" value="" style="shape=tableRow;horizontal=0;startSize=0;swimlaneHead=0;swimlaneBody=0;top=0;left=0;bottom=0;right=0;collapsible=0;dropTarget=0;fillColor=none;points=[[0,0.5],[1,0.5]];portConstraint=eastwest;fontSize=9;" parent="iWE5cc2lIVNOjAc23-8p-65" vertex="1">
          <mxGeometry y="46" width="190" height="23" as="geometry" />
        </mxCell>
        <mxCell id="iWE5cc2lIVNOjAc23-8p-75" value="Input PV" style="shape=partialRectangle;html=1;whiteSpace=wrap;connectable=0;fillColor=none;top=0;left=0;bottom=0;right=0;overflow=hidden;fontSize=9;" parent="iWE5cc2lIVNOjAc23-8p-74" vertex="1">
          <mxGeometry width="95" height="23" as="geometry">
            <mxRectangle width="95" height="23" as="alternateBounds" />
          </mxGeometry>
        </mxCell>
        <mxCell id="iWE5cc2lIVNOjAc23-8p-76" value="&lt;span style=&quot;font-size: 8px; text-align: left;&quot;&gt;\(PV_{total}\)&amp;nbsp;&lt;/span&gt;&lt;span style=&quot;font-size: 8px; text-align: left;&quot;&gt; &lt;/span&gt;" style="shape=partialRectangle;html=1;whiteSpace=wrap;connectable=0;fillColor=none;top=0;left=0;bottom=0;right=0;overflow=hidden;fontSize=8;" parent="iWE5cc2lIVNOjAc23-8p-74" vertex="1">
          <mxGeometry x="95" width="95" height="23" as="geometry">
            <mxRectangle width="95" height="23" as="alternateBounds" />
          </mxGeometry>
        </mxCell>
        <mxCell id="iWE5cc2lIVNOjAc23-8p-103" style="shape=tableRow;horizontal=0;startSize=0;swimlaneHead=0;swimlaneBody=0;top=0;left=0;bottom=0;right=0;collapsible=0;dropTarget=0;fillColor=none;points=[[0,0.5],[1,0.5]];portConstraint=eastwest;fontSize=9;" parent="iWE5cc2lIVNOjAc23-8p-65" vertex="1">
          <mxGeometry y="69" width="190" height="22" as="geometry" />
        </mxCell>
        <mxCell id="iWE5cc2lIVNOjAc23-8p-104" value="Load after PV" style="shape=partialRectangle;html=1;whiteSpace=wrap;connectable=0;fillColor=none;top=0;left=0;bottom=0;right=0;overflow=hidden;fontSize=9;" parent="iWE5cc2lIVNOjAc23-8p-103" vertex="1">
          <mxGeometry width="95" height="22" as="geometry">
            <mxRectangle width="95" height="22" as="alternateBounds" />
          </mxGeometry>
        </mxCell>
        <mxCell id="iWE5cc2lIVNOjAc23-8p-105" value="&lt;div style=&quot;text-align: left;&quot;&gt;&lt;span style=&quot;background-color: initial;&quot;&gt;\(L_{apv}\)&lt;/span&gt;&lt;/div&gt;" style="shape=partialRectangle;html=1;whiteSpace=wrap;connectable=0;fillColor=none;top=0;left=0;bottom=0;right=0;overflow=hidden;fontSize=8;" parent="iWE5cc2lIVNOjAc23-8p-103" vertex="1">
          <mxGeometry x="95" width="95" height="22" as="geometry">
            <mxRectangle width="95" height="22" as="alternateBounds" />
          </mxGeometry>
        </mxCell>
        <mxCell id="iWE5cc2lIVNOjAc23-8p-100" style="shape=tableRow;horizontal=0;startSize=0;swimlaneHead=0;swimlaneBody=0;top=0;left=0;bottom=0;right=0;collapsible=0;dropTarget=0;fillColor=none;points=[[0,0.5],[1,0.5]];portConstraint=eastwest;fontSize=9;" parent="iWE5cc2lIVNOjAc23-8p-65" vertex="1">
          <mxGeometry y="91" width="190" height="23" as="geometry" />
        </mxCell>
        <mxCell id="iWE5cc2lIVNOjAc23-8p-101" value="Excess PV" style="shape=partialRectangle;html=1;whiteSpace=wrap;connectable=0;fillColor=none;top=0;left=0;bottom=0;right=0;overflow=hidden;fontSize=9;" parent="iWE5cc2lIVNOjAc23-8p-100" vertex="1">
          <mxGeometry width="95" height="23" as="geometry">
            <mxRectangle width="95" height="23" as="alternateBounds" />
          </mxGeometry>
        </mxCell>
        <mxCell id="iWE5cc2lIVNOjAc23-8p-102" value="&lt;span style=&quot;font-size: 8px; text-align: left;&quot;&gt;\(PV_{excess}\)&amp;nbsp;&lt;/span&gt;" style="shape=partialRectangle;html=1;whiteSpace=wrap;connectable=0;fillColor=none;top=0;left=0;bottom=0;right=0;overflow=hidden;fontSize=8;" parent="iWE5cc2lIVNOjAc23-8p-100" vertex="1">
          <mxGeometry x="95" width="95" height="23" as="geometry">
            <mxRectangle width="95" height="23" as="alternateBounds" />
          </mxGeometry>
        </mxCell>
        <mxCell id="iWE5cc2lIVNOjAc23-8p-97" style="shape=tableRow;horizontal=0;startSize=0;swimlaneHead=0;swimlaneBody=0;top=0;left=0;bottom=0;right=0;collapsible=0;dropTarget=0;fillColor=none;points=[[0,0.5],[1,0.5]];portConstraint=eastwest;fontSize=9;" parent="iWE5cc2lIVNOjAc23-8p-65" vertex="1">
          <mxGeometry y="114" width="190" height="24" as="geometry" />
        </mxCell>
        <mxCell id="iWE5cc2lIVNOjAc23-8p-98" value="PV to load" style="shape=partialRectangle;html=1;whiteSpace=wrap;connectable=0;fillColor=none;top=0;left=0;bottom=0;right=0;overflow=hidden;fontSize=9;" parent="iWE5cc2lIVNOjAc23-8p-97" vertex="1">
          <mxGeometry width="95" height="24" as="geometry">
            <mxRectangle width="95" height="24" as="alternateBounds" />
          </mxGeometry>
        </mxCell>
        <mxCell id="iWE5cc2lIVNOjAc23-8p-99" value="&lt;span style=&quot;font-size: 8px; text-align: left;&quot;&gt;\(PV_{load}\)&amp;nbsp;&lt;/span&gt;" style="shape=partialRectangle;html=1;whiteSpace=wrap;connectable=0;fillColor=none;top=0;left=0;bottom=0;right=0;overflow=hidden;fontSize=8;" parent="iWE5cc2lIVNOjAc23-8p-97" vertex="1">
          <mxGeometry x="95" width="95" height="24" as="geometry">
            <mxRectangle width="95" height="24" as="alternateBounds" />
          </mxGeometry>
        </mxCell>
        <mxCell id="iWE5cc2lIVNOjAc23-8p-94" style="shape=tableRow;horizontal=0;startSize=0;swimlaneHead=0;swimlaneBody=0;top=0;left=0;bottom=0;right=0;collapsible=0;dropTarget=0;fillColor=none;points=[[0,0.5],[1,0.5]];portConstraint=eastwest;fontSize=9;" parent="iWE5cc2lIVNOjAc23-8p-65" vertex="1">
          <mxGeometry y="138" width="190" height="21" as="geometry" />
        </mxCell>
        <mxCell id="iWE5cc2lIVNOjAc23-8p-95" style="shape=partialRectangle;html=1;whiteSpace=wrap;connectable=0;fillColor=none;top=0;left=0;bottom=0;right=0;overflow=hidden;fontSize=9;" parent="iWE5cc2lIVNOjAc23-8p-94" vertex="1">
          <mxGeometry width="95" height="21" as="geometry">
            <mxRectangle width="95" height="21" as="alternateBounds" />
          </mxGeometry>
        </mxCell>
        <mxCell id="iWE5cc2lIVNOjAc23-8p-96" value="&lt;span style=&quot;font-size: 8px; text-align: left;&quot;&gt;\(L\)&amp;nbsp;&lt;/span&gt;" style="shape=partialRectangle;html=1;whiteSpace=wrap;connectable=0;fillColor=none;top=0;left=0;bottom=0;right=0;overflow=hidden;fontSize=8;" parent="iWE5cc2lIVNOjAc23-8p-94" vertex="1">
          <mxGeometry x="95" width="95" height="21" as="geometry">
            <mxRectangle width="95" height="21" as="alternateBounds" />
          </mxGeometry>
        </mxCell>
        <mxCell id="iWE5cc2lIVNOjAc23-8p-91" style="shape=tableRow;horizontal=0;startSize=0;swimlaneHead=0;swimlaneBody=0;top=0;left=0;bottom=0;right=0;collapsible=0;dropTarget=0;fillColor=none;points=[[0,0.5],[1,0.5]];portConstraint=eastwest;fontSize=9;" parent="iWE5cc2lIVNOjAc23-8p-65" vertex="1">
          <mxGeometry y="159" width="190" height="24" as="geometry" />
        </mxCell>
        <mxCell id="iWE5cc2lIVNOjAc23-8p-92" style="shape=partialRectangle;html=1;whiteSpace=wrap;connectable=0;fillColor=none;top=0;left=0;bottom=0;right=0;overflow=hidden;fontSize=9;" parent="iWE5cc2lIVNOjAc23-8p-91" vertex="1">
          <mxGeometry width="95" height="24" as="geometry">
            <mxRectangle width="95" height="24" as="alternateBounds" />
          </mxGeometry>
        </mxCell>
        <mxCell id="iWE5cc2lIVNOjAc23-8p-93" value="&lt;span style=&quot;font-size: 8px; text-align: left;&quot;&gt;\(L\)&amp;nbsp;&lt;/span&gt;" style="shape=partialRectangle;html=1;whiteSpace=wrap;connectable=0;fillColor=none;top=0;left=0;bottom=0;right=0;overflow=hidden;fontSize=8;" parent="iWE5cc2lIVNOjAc23-8p-91" vertex="1">
          <mxGeometry x="95" width="95" height="24" as="geometry">
            <mxRectangle width="95" height="24" as="alternateBounds" />
          </mxGeometry>
        </mxCell>
        <mxCell id="iWE5cc2lIVNOjAc23-8p-108" value="&lt;u&gt;(iii) into (i)&lt;/u&gt;" style="text;html=1;align=left;verticalAlign=middle;resizable=0;points=[];autosize=1;strokeColor=none;fillColor=none;fontSize=11;" parent="bpXd2vlqVgXWWFcCKrqM-1" vertex="1">
          <mxGeometry x="875" y="500" width="70" height="30" as="geometry" />
        </mxCell>
        <mxCell id="iWE5cc2lIVNOjAc23-8p-109" value="\(PV_{excess} = PV_{bess} + PV_{feed}\)&amp;nbsp; &amp;nbsp;(ii)" style="text;html=1;align=left;verticalAlign=middle;resizable=0;points=[];autosize=1;strokeColor=none;fillColor=none;fontSize=11;" parent="bpXd2vlqVgXWWFcCKrqM-1" vertex="1">
          <mxGeometry x="875" y="530" width="250" height="30" as="geometry" />
        </mxCell>
      </root>
    </mxGraphModel>
  </diagram>
</mxfile>
